<svg width="64" height="62" fill="none" xmlns="http://www.w3.org/2000/svg"><path d="M27.025 35.89l-1.223.493-2.502-6.092a121.7 121.7 0 002.558-1.042l1.167 6.64zm12.067-16.85L33.197 4.718l4.17-.933c1.28-.384 2.614.22 3.17 1.317 0 0 0 .055.056.055v.164l3.336 8.123c.5 1.207.056 2.69-1.112 3.403l-3.725 2.195zm6.895-2.688c.334-.824.445-1.757.334-2.69l4.226-1.701c2.28-.933 3.392-3.512 2.446-5.708L63.28 2.137c.612-.274.89-.823.612-1.427-.278-.603-.834-.878-1.446-.603L52.16 4.223c-.945-2.25-3.559-3.348-5.783-2.415L42.15 3.509v-.055s0-.054-.056-.054v-.055s0-.055-.055-.055v-.055s0-.055-.056-.055l-.055-.055s0-.055-.056-.055l-.056-.055-.055-.055v-.054l-.056-.055-.055-.055s0-.055-.056-.055l-.056-.055-.055-.055-.056-.055-.055-.055-.056-.054s-.056 0-.056-.055l-.055-.055-.056-.055h-.056s-.055 0-.055-.055l-.056-.055s-.055 0-.055-.055l-.056-.055s-.056 0-.056-.055l-.055-.054s-.056 0-.056-.055h-.055l-.056-.055-.056-.055h-.055s-.056 0-.056-.055h-.055s-.056 0-.056-.055h-.056s-.055 0-.055-.055h-.056s-.055 0-.055-.055h-.056c-.056 0-.056-.054-.111-.054h-.056s-.055 0-.055-.055h-.334-.056c-.055 0-.055 0-.11-.055-.056 0-.056 0-.112-.055H36.812h-.501L30.806 2.63l-2.057.494c-1.446.33-2.891.549-4.337.878l-1.001.165c-6.228 1.207-14.458 4.83-19.685 8.507C.334 15.199-.889 19.535.668 23.267l1.668 4.06c1.446 3.513 5.116 5.763 8.953 5.544l2.891 8.671 3.337 8.123.389 6.147c-.056.219-.056.493.056.768l1.668 4.061c.445 1.098 1.779 1.647 2.891 1.207l15.459-6.201c1.112-.44 1.668-1.756 1.223-2.854l-1.668-4.006c-.056-.11-.056-.165-.111-.275a1.092 1.092 0 00-.723-.494l-8.008-3.348-2.669-6.53 2.058-.824c.5-.22.778-.658.667-1.207l-1.446-8.342c2.447-1.153 4.671-2.36 6.34-3.622l9.564-5.598c1.668-.384 2.39-1.208 2.78-2.195zm-.39-4.775l-2.502-6.092 4.115-1.646c1.112-.44 2.447.11 2.892 1.207l.445 1.043.444 1.042c.445 1.098-.11 2.415-1.223 2.854l-4.17 1.592zM30.974 5.21l6.172 14.982-3.948 2.305c-5.06 3.677-14.401 7.3-20.74 8.233-3.17.439-6.117-1.208-7.34-4.062l-1.669-4.06c-1.167-2.855-.222-6.093 2.28-7.904 2.67-2.03 6.673-3.951 10.565-5.543 2.892-1.152 5.672-2.03 8.063-2.524l1.001-.165c1.446-.22 3.003-.604 4.393-.933l1.223-.33zm5.56 45.551l1.28 3.074-15.459 6.201-1.279-3.073 7.73-3.128 7.729-3.074zm-14.179 9.275l.445 1.043-.445-1.043zm4.671-14.928l-7.228 2.91-2.948-7.135-2.78-8.178c2.169-.439 4.56-1.097 7.006-1.92l3.059 7.408 2.891 6.915zm7.229 4.226l-8.786 3.513-4.782 1.92-.334-4.61 8.119-3.292 5.783 2.47zM10.733 23.212l6.172-2.47c.612-.274.89-.823.612-1.427-.278-.604-.834-.878-1.446-.604l-6.172 2.47c-.612.275-.89.823-.612 1.427.278.604.834.823 1.446.604zM9.065 19.15l6.172-2.47c.611-.274.89-.823.611-1.427-.278-.604-.834-.878-1.445-.604L8.23 17.12c-.611.274-.89.823-.611 1.427.278.604.834.823 1.446.604z" fill="#F8B24F"/></svg>