<svg width="64" height="62" fill="none" xmlns="http://www.w3.org/2000/svg"><path fill-rule="evenodd" clip-rule="evenodd" d="M40.186 17.053c-1.157-.557-3.197-.613-4.465-.613h-8.103v14.036h8.213c1.93 0 4.135-.334 5.623-1.782 1.433-1.393 1.82-3.398 1.82-5.347 0-1.393-.221-2.73-.883-3.955-.496-.947-1.212-1.838-2.205-2.339zM20.837 36.101v2.897h3.914v9.524h2.867v-9.469h13.01v-2.896h-13.01v-2.395h7.993c2.866 0 6.229-.501 8.158-2.896 1.764-2.172 2.37-4.846 2.37-7.63 0-2.117-.33-4.233-1.433-6.016-.937-1.56-2.15-2.673-3.803-3.286-1.599-.613-3.914-.668-5.623-.668H24.696V36.1h-3.859z" fill="#F8B24F"/><path d="M10.143 10.648A30.516 30.516 0 0127.728.511c6.67-1.225 13.671-.278 20.01 3.175 7.498 4.01 12.624 10.75 14.94 18.324 2.26 7.575 1.708 16.096-2.316 23.616l-.11.167c-4.024 7.463-10.584 12.587-18.081 14.87-7.497 2.284-15.931 1.727-23.373-2.338l-.166-.112a30.673 30.673 0 01-10.694-9.747 31.71 31.71 0 01-4.3-9.301l-1.433 4.233L0 42.618l3.418-10.193 6.89 6.127-1.543 1.782-3.032-2.673a29.199 29.199 0 004.19 9.468c2.535 3.732 5.953 6.907 10.032 9.079a27.815 27.815 0 0021.61 2.117c6.945-2.117 13.064-6.963 16.758-13.925a28.628 28.628 0 002.094-21.833A28.5 28.5 0 0046.636 5.635 28.903 28.903 0 0028.169 2.85c-6.119 1.114-11.907 4.345-16.262 9.357l-1.764-1.559z" fill="#F8B24F"/></svg>