<svg width="63" height="76" fill="none" xmlns="http://www.w3.org/2000/svg"><path d="M35.332 73.486H5.196v.773c0 .968-.78 1.741-1.754 1.741H1.754A1.74 1.74 0 010 74.26V36.355c0-.967.78-1.74 1.754-1.74h1.623v-.774c0-.967.78-1.74 1.754-1.74h11.756a1.74 1.74 0 011.753 1.74v.774h3.183v-.774c0-.967.78-1.74 1.753-1.74h11.756a1.74 1.74 0 011.754 1.74v.774h1.624a1.74 1.74 0 011.753 1.74V74.26c0 .966-.78 1.74-1.753 1.74h-1.69a1.74 1.74 0 01-1.753-1.74v-.774h.065zm-11.626-39.58v.645h11.626v-.644H23.706zm-18.51 0v.645h11.626v-.644H5.196zm-3.377 2.515v8.186h36.826v-8.186H1.819zm13.314 1.676v-.065c0-.515.39-.902.91-.902.519 0 .909.387.909.902v.065c.974.386 1.688 1.353 1.688 2.385 0 1.418-1.169 2.578-2.598 2.578-1.429 0-2.598-1.16-2.598-2.578 0-1.032.715-1.998 1.69-2.385zm-8.378 0v-.065c0-.515.39-.902.909-.902.52 0 .91.387.91.902v.065c.973.386 1.688 1.353 1.688 2.385 0 1.418-1.17 2.578-2.598 2.578-1.429 0-2.598-1.16-2.598-2.578a2.56 2.56 0 011.689-2.385zm25.2 0v-.065c0-.515.39-.902.91-.902.519 0 .908.387.908.902v.065c.975.386 1.69 1.353 1.69 2.385 0 1.418-1.17 2.578-2.599 2.578-1.429 0-2.598-1.16-2.598-2.578a2.56 2.56 0 011.689-2.385zm-8.443 0v-.065c0-.515.39-.902.909-.902.52 0 .91.387.91.902v.065c.973.386 1.688 1.353 1.688 2.385 0 1.418-1.17 2.578-2.598 2.578-1.43 0-2.598-1.16-2.598-2.578.065-1.032.714-1.998 1.689-2.385zm-7.47 1.676c-.39 0-.779.322-.779.773 0 .387.325.774.78.774.39 0 .779-.322.779-.774 0-.451-.325-.773-.78-.773zm-8.378 0c-.39 0-.78.322-.78.773 0 .387.325.774.78.774.39 0 .78-.322.78-.774-.066-.451-.39-.773-.78-.773zm25.2 0c-.39 0-.78.322-.78.773 0 .387.325.774.78.774.39 0 .78-.322.78-.774 0-.451-.39-.773-.78-.773zm-8.378 0c-.39 0-.78.322-.78.773 0 .387.325.774.78.774.39 0 .78-.322.78-.774-.066-.451-.39-.773-.78-.773zM38.645 74.13V46.412H1.819v27.719h1.493v-1.612c0-.516.39-.902.91-.902h31.955c.52 0 .909.386.909.902v1.612h1.559zm-3.248-26.172a1.74 1.74 0 011.754 1.74v18.695c0 .966-.78 1.74-1.754 1.74H5.131a1.74 1.74 0 01-1.754-1.74V49.7c0-.967.78-1.74 1.754-1.74h30.266zm-.065 20.37v-18.5H5.196v18.5h30.136zM32.864 54.6c.52 0 .91.387.91.902V65.88c0 .515-.39.902-.91.902h-25.2a.885.885 0 01-.91-.902V55.5c0-.515.39-.902.91-.902h25.2zm0-3.352c.52 0 .91.387.91.902 0 .516-.39.903-.91.903h-25.2a.885.885 0 01-.91-.903c0-.515.39-.902.91-.902h25.2zm-.91 13.73v-8.509H8.575v8.51h23.38zM10.781 15.729h18.965l-2.273-2.257c-.195-.193-.26-.45-.26-.709V1.933H13.314v10.83c0 .258-.13.516-.26.71l-2.273 2.256zm21.368 1.933H8.378c-.39 0-.78-.257-.91-.58a1.12 1.12 0 01.196-1.096l3.637-3.61V.967c0-.515.454-.966.974-.966h15.847c.52 0 .975.451.975.967v11.41l3.637 3.61c.26.257.39.708.195 1.095 0 .323-.39.58-.78.58zM5.78 20.241h28.902c.585 0 1.105.258 1.494.645.39.386.65.902.65 1.482v4.384c0 .58-.26 1.095-.65 1.482s-.909.645-1.494.645H5.78c-.584 0-1.104-.258-1.494-.645-.39-.387-.65-.902-.65-1.482v-4.384c0-.58.26-1.096.65-1.482.39-.387.91-.645 1.494-.645zm.065 2.127v4.384h28.902v-4.384H5.845zM59.752 37.065v-1.934c0-1.095-.909-1.933-1.948-1.933v-16.18l1.689-1.676c.26-.258.325-.645.26-.967l-1.949-5.866a.976.976 0 00-.91-.645h-3.896a.917.917 0 00-.91.645l-1.948 5.866c-.13.322 0 .709.26.967l1.689 1.676v16.18a1.947 1.947 0 00-1.949 1.933v1.934a2.9 2.9 0 00-2.923 2.901v22.433c0 2.707 2.209 4.899 4.937 4.899h5.91c2.728 0 4.936-2.192 4.936-4.9V39.967c-.325-1.611-1.624-2.9-3.248-2.9zm-2.922 3.868c-.52 0-.974.451-.974.967v20.499c0 .515.454.966.974.966s.974-.45.974-.966v-20.5c0-.515-.455-.966-.974-.966zm-3.962 0c-.52 0-.974.451-.974.967v20.499c0 .515.454.966.974.966s.974-.45.974-.966v-20.5c0-.515-.454-.966-.974-.966zm.714-25.011l-1.558-1.547 1.558-4.641h2.533l1.56 4.64-1.56 1.548c-.194.193-.26.451-.26.709v16.567h-1.948V16.567c-.065-.258-.13-.452-.325-.645zm-1.688 19.21h5.91v1.933h-5.91v-1.934zm8.833 27.267a2.9 2.9 0 01-2.923 2.9h-5.91a2.9 2.9 0 01-2.923-2.9V39.966c0-.516.455-.967.974-.967h9.807c.52 0 .975.451.975.967v22.433z" fill="#F8B24F"/></svg>