<svg width="64" height="54" fill="none" xmlns="http://www.w3.org/2000/svg"><path d="M52.356 42.274c-1.545 0-3.038.617-4.17 1.697-1.133 1.132-1.75 2.572-1.75 4.166a5.88 5.88 0 001.75 4.166C49.318 53.434 50.81 54 52.356 54c3.191 0 5.817-2.623 5.817-5.863s-2.626-5.863-5.817-5.863zM53.9 22.731c-.257-.205-.566-.36-.875-.36h-6.693c-.72 0-1.287.566-1.287 1.286v10.697c0 .72.567 1.286 1.287 1.286h10.605c.721 0 1.287-.566 1.287-1.286v-7.148c0-.36-.154-.72-.411-.977L53.9 22.73zM20.49 42.274c-1.545 0-3.038.617-4.17 1.697-1.133 1.132-1.751 2.572-1.751 4.166a5.88 5.88 0 001.75 4.166C17.452 53.434 18.945 54 20.49 54c3.192 0 5.817-2.623 5.817-5.863s-2.625-5.863-5.817-5.863zm-8.701 1.595H9.164v-3.446c0-.72-.567-1.286-1.287-1.286-.721 0-1.287.566-1.287 1.286v4.783c0 .72.566 1.285 1.287 1.285h3.912c.72 0 1.287-.565 1.287-1.285 0-.772-.566-1.337-1.287-1.337zm6.59-7.098c0-.72-.567-1.285-1.288-1.285H1.287C.567 35.486 0 36.05 0 36.77s.566 1.286 1.287 1.286h15.804c.721 0 1.287-.566 1.287-1.286zM3.912 32.04l15.855.103c.721 0 1.287-.566 1.339-1.286 0-.72-.566-1.337-1.287-1.337l-15.856-.103c-.72 0-1.287.566-1.287 1.286-.051.771.515 1.337 1.236 1.337zm2.677-5.914h15.804c.72 0 1.287-.566 1.287-1.286 0-.72-.566-1.286-1.287-1.286H6.59c-.721 0-1.288.566-1.288 1.286-.051.72.567 1.286 1.288 1.286zm56.988-1.749l-9.369-7.714c-.258-.206-.515-.309-.824-.309H42.42v-4.68c0-.72-.566-1.285-1.287-1.285h-.566c.72-1.08 1.184-2.366 1.184-3.755C41.75 2.983 38.765 0 35.11 0a6.647 6.647 0 00-5.87 3.549c-.514.977-1.08 2.057-1.75 3.034a3.969 3.969 0 00-2.985-1.337c-1.184 0-2.214.514-2.986 1.337-.67-1.029-1.236-2.057-1.75-3.034C18.636 1.337 16.37 0 13.898 0c-3.654 0-6.64 2.983-6.64 6.634 0 1.389.412 2.675 1.184 3.755h-.566c-.721 0-1.287.565-1.287 1.285v9.515c0 .72.566 1.285 1.287 1.285.72 0 1.287-.565 1.287-1.285V12.96h30.63v30.909H29.087c-.721 0-1.288.565-1.288 1.285s.567 1.286 1.288 1.286h15.958c.721 0 1.287-.566 1.287-1.286 0-.72-.566-1.285-1.287-1.285H42.42V18.977h10.502l8.494 7.046-.103 17.846h-1.338c-.721 0-1.287.565-1.287 1.285s.566 1.286 1.287 1.286H62.6c.721 0 1.287-.566 1.287-1.286l.103-19.748a1.118 1.118 0 00-.412-1.029zm-27.181-14.04h-2.265c.772-.771 1.39-1.646 1.904-2.571l.258-.566c.309-.669.051-1.44-.566-1.749-.67-.308-1.442-.051-1.75.566l-.258.566c-.978 1.903-2.677 3.291-4.685 3.754h-.618c.052-.206.103-.411.103-.617 1.339-1.594 2.317-3.394 3.14-4.937.67-1.337 2.06-2.16 3.553-2.16 2.213 0 3.964 1.8 3.964 3.96-.155 1.748-1.236 3.24-2.78 3.754zm-11.172 0h-1.441c-.309-.206-.566-.566-.566-.977v-.309c.051-.668.617-1.182 1.338-1.182.67 0 1.236.514 1.339 1.182v.309c-.155.411-.36.771-.67.977zm-4.581 0h-.618a7.278 7.278 0 01-4.685-3.754l-.257-.566c-.31-.668-1.133-.926-1.75-.566-.67.309-.927 1.132-.567 1.749l.258.566a8.58 8.58 0 001.904 2.571h-2.265c-1.544-.566-2.677-2.006-2.677-3.754a3.964 3.964 0 013.964-3.96c1.493 0 2.832.823 3.552 2.16.824 1.594 1.802 3.343 3.14 4.937-.102.206-.05.411 0 .617zm-.155 41.04c-1.802 0-3.294-1.491-3.294-3.24 0-1.748 1.492-3.24 3.294-3.24 1.75 0 3.192 1.44 3.192 3.24 0 1.8-1.39 3.24-3.192 3.24zM55.6 33.07h-7.98v-8.075h4.891l3.14 2.829v5.246H55.6zm-3.243 18.308c-1.802 0-3.295-1.491-3.295-3.24 0-1.748 1.493-3.24 3.295-3.24 1.75 0 3.191 1.44 3.191 3.24 0 1.8-1.39 3.24-3.191 3.24z" fill="#F8B24F"/></svg>