<svg width="64" height="56" fill="none" xmlns="http://www.w3.org/2000/svg"><path d="M45.297 32.226v23.092H18.152V32.226h27.145zm-12.524 1.989v19.17h10.261v-19.17H32.773zm-2.207 19.17v-19.17H20.359v19.17h10.207z" fill="#F8B24F"/><path d="M45.297 32.226v23.092H18.152V32.226h27.145zm-12.524 1.989v19.17h10.261v-19.17H32.773zm-2.207 19.17v-19.17H20.359v19.17h10.207zM0 23.332L32 .682l32 22.65-1.324 1.491L32 3.168 1.38 24.823 0 23.332z" fill="#F8B24F"/><path d="M0 23.332L32 .682l32 22.65-1.324 1.491L32 3.168 1.38 24.823 0 23.332z" fill="#F8B24F"/><path d="M7.283 23.83C15.559 18.028 23.779 12.227 32 6.372c8.22 5.8 16.497 11.656 24.717 17.456v30.66H54.51V24.77L32 8.858 9.49 24.823v29.72H7.283V23.83z" fill="#F8B24F"/><path d="M7.283 23.83C15.559 18.028 23.779 12.227 32 6.372c8.22 5.8 16.497 11.656 24.717 17.456v30.66H54.51V24.77L32 8.858 9.49 24.823v29.72H7.283V23.83z" fill="#F8B24F"/><path fill-rule="evenodd" clip-rule="evenodd" d="M38.51 27.751c.11.056.221.166.221.332l.607 2.983a.502.502 0 01-.166.387.5.5 0 01-.386.165h-.055l-3.145-.497h-.055c-.166 0-.331-.055-.386-.165L22.73 19.905a1.21 1.21 0 010-1.822l1.38-1.27a1.74 1.74 0 011.048-.387c.386 0 .772.165 1.048.386L38.51 27.751zm-10.593-8.065l-.386-.331-1.986 1.767.386.332 1.986-1.768zm7.559 10.22l.607-.552-8.773-7.79-.551.497 8.717 7.845zm2.372-.773l-.496.441c0 .056-.055.056-.11.11l-.663.553 1.49.221-.22-1.325zm-.441-.94L28.69 20.35l-.607.552 8.772 7.79.552-.498zm-10.648-9.557l-1.27-1.16c-.165-.11-.44-.11-.551 0l-1.38 1.27c-.165.111-.165.388 0 .498l1.325 1.16 1.876-1.768z" fill="#F8B24F"/><path d="M38.51 27.751c.11.056.221.166.221.332l.607 2.983a.502.502 0 01-.166.387.5.5 0 01-.386.165h-.055l-3.145-.497h-.055c-.166 0-.331-.055-.386-.165L22.73 19.905a1.21 1.21 0 010-1.822l1.38-1.27a1.74 1.74 0 011.048-.387c.386 0 .772.165 1.048.386L38.51 27.751zm-10.593-8.065l-.386-.331-1.986 1.767.386.332 1.986-1.768zm7.559 10.22l.607-.552-8.773-7.79-.551.497 8.717 7.845zm2.372-.773l-.496.441c0 .056-.055.056-.11.11l-.663.553 1.49.221-.22-1.325zm-.441-.94L28.69 20.35l-.607.552 8.772 7.79.552-.498zm-10.648-9.557l-1.27-1.16c-.165-.11-.44-.11-.551 0l-1.38 1.27c-.165.111-.165.388 0 .498l1.325 1.16 1.876-1.768z" fill="#F8B24F"/></svg>