<svg width="64" height="64" fill="none" xmlns="http://www.w3.org/2000/svg"><path d="M53.88 29.538c0-12.23-9.794-22.128-21.896-22.128-12.1 0-21.895 9.898-21.895 22.128s9.794 22.128 21.895 22.128c12.102 0 21.895-9.95 21.895-22.128zM31.983 49.542c-10.921 0-19.792-8.966-19.792-20.004 0-11.038 8.87-20.003 19.792-20.003 10.922 0 19.793 8.965 19.793 20.003s-8.87 20.004-19.793 20.004z" fill="#F8B24F"/><path d="M53.88 29.538c0-12.23-9.794-22.128-21.896-22.128-12.1 0-21.895 9.898-21.895 22.128s9.794 22.128 21.895 22.128c12.102 0 21.895-9.95 21.895-22.128zM31.983 49.542c-10.921 0-19.792-8.966-19.792-20.004 0-11.038 8.87-20.003 19.792-20.003 10.922 0 19.793 8.965 19.793 20.003s-8.87 20.004-19.793 20.004z" fill="#F8B24F"/><path d="M31.985 12.645c-9.23 0-16.665 7.566-16.665 16.842 0 9.328 7.486 16.842 16.665 16.842 9.23 0 16.664-7.566 16.664-16.842s-7.435-16.79-16.665-16.842zm0 31.61c-8.05 0-14.614-6.58-14.614-14.768 0-8.136 6.512-14.77 14.614-14.77 8.05 0 14.613 6.582 14.613 14.77-.051 8.187-6.563 14.769-14.613 14.769z" fill="#F8B24F"/><path d="M31.985 12.645c-9.23 0-16.665 7.566-16.665 16.842 0 9.328 7.486 16.842 16.665 16.842 9.23 0 16.664-7.566 16.664-16.842s-7.435-16.79-16.665-16.842zm0 31.61c-8.05 0-14.614-6.58-14.614-14.768 0-8.136 6.512-14.77 14.614-14.77 8.05 0 14.613 6.582 14.613 14.77-.051 8.187-6.563 14.769-14.613 14.769z" fill="#F8B24F"/><path d="M63.673 51.77l-6.82-6.892c.154-.156.308-.363.462-.57.461-1.089.513-2.332.205-3.472a5.056 5.056 0 01-.103-1.97c.308-.57.77-1.036 1.282-1.399.974-.673 1.744-1.658 2.051-2.798.051-1.192-.256-2.332-.974-3.265a5.965 5.965 0 01-.77-1.866 4.251 4.251 0 01.77-1.865 5.319 5.319 0 00.974-3.265 5.342 5.342 0 00-2.05-2.798 4.73 4.73 0 01-1.283-1.4c-.102-.673-.102-1.347.103-1.969.307-1.14.256-2.383-.205-3.472a5.475 5.475 0 00-2.872-1.917 4.088 4.088 0 01-1.692-.881 4.65 4.65 0 01-.564-1.866c-.102-1.192-.564-2.332-1.384-3.16-.975-.675-2.154-.934-3.333-.83a4.935 4.935 0 01-1.949-.26c-.513-.414-.871-.932-1.18-1.554-.46-1.088-1.332-1.969-2.358-2.54-1.128-.258-2.358-.155-3.384.416-.615.259-1.23.414-1.897.414-.616-.207-1.128-.57-1.59-1.036C34.292.674 33.164.104 31.984 0c-1.179.155-2.307.674-3.128 1.555-.461.466-.974.829-1.59 1.036a4.62 4.62 0 01-1.896-.414 5.09 5.09 0 00-3.385-.415c-1.076.518-1.897 1.451-2.358 2.54a4.311 4.311 0 01-1.18 1.554 4.935 4.935 0 01-1.948.259c-1.18-.104-2.359.155-3.333.83-.82.88-1.282 1.968-1.385 3.16a4.65 4.65 0 01-.564 1.866c-.512.414-1.076.725-1.692.88a4.936 4.936 0 00-2.871 1.918c-.462 1.088-.513 2.332-.205 3.472.154.622.205 1.296.102 1.97-.307.57-.769 1.036-1.282 1.399-.974.673-1.743 1.658-2.05 2.798-.052 1.192.256 2.332.974 3.265.359.57.615 1.192.769 1.866a4.25 4.25 0 01-.77 1.865 5.318 5.318 0 00-.974 3.265 5.342 5.342 0 002.051 2.798c.513.363.975.83 1.282 1.4.103.673.103 1.347-.102 1.969-.308 1.14-.257 2.383.205 3.472.102.207.256.362.461.57L.295 51.77c-.256.26-.358.674-.256 1.036.103.363.36.674.718.726l7.538 2.073 2.05 7.618c.103.362.36.621.719.725.102 0 .153.052.256.052.256 0 .564-.104.718-.31l8.05-8.085c.41.777 1.077 1.4 1.897 1.71 1.128.26 2.36.156 3.385-.415.615-.259 1.23-.414 1.897-.414.615.207 1.128.57 1.59 1.036.82.881 1.897 1.451 3.127 1.555 1.18-.155 2.308-.674 3.128-1.555.462-.466.974-.829 1.59-1.036a4.62 4.62 0 011.897.414c1.077.519 2.256.674 3.384.415.82-.363 1.436-.985 1.897-1.71l8.05 8.084c.206.207.462.311.719.311.102 0 .205 0 .256-.052.359-.104.615-.363.718-.725l2.05-7.618 7.538-2.073c.36-.104.616-.363.718-.725.154-.415.052-.778-.256-1.037zm-51.789 9.12l-1.743-6.425a1.02 1.02 0 00-.718-.726l-6.358-1.762 5.896-6.011c.205.104.41.155.616.207.615.156 1.23.467 1.692.881a4.65 4.65 0 01.564 1.866c.102 1.192.564 2.332 1.384 3.161.974.674 2.154.933 3.333.83a4.935 4.935 0 011.949.258c.205.156.359.311.513.519l-7.128 7.203zm30.663-7.203c-.41.726-.82 1.452-1.282 1.607a3.87 3.87 0 01-2-.415c-.922-.414-1.948-.621-2.974-.518a5.634 5.634 0 00-2.563 1.503c-.616.518-1.282 1.088-1.795 1.088-.513 0-1.128-.57-1.795-1.088a5.634 5.634 0 00-2.563-1.503c-.206-.052-.36-.052-.564-.052-.82.052-1.641.26-2.41.57a3.768 3.768 0 01-2 .415c-.462-.155-.872-.881-1.282-1.606a5.46 5.46 0 00-1.897-2.28c-.923-.415-1.949-.623-2.974-.519a4.392 4.392 0 01-2-.31c-.41-.57-.615-1.245-.667-1.97a6.159 6.159 0 00-1.025-2.85 5.633 5.633 0 00-2.564-1.503c-.718-.26-1.59-.57-1.795-.985a4.061 4.061 0 01.052-2.073 6.172 6.172 0 000-3.057 5.461 5.461 0 00-1.898-2.28c-.615-.518-1.282-1.088-1.333-1.607.103-.673.308-1.347.718-1.865.564-.83.923-1.866 1.026-2.902a6.577 6.577 0 00-1.026-2.902c-.41-.57-.667-1.192-.718-1.866.103-.466.718-1.036 1.333-1.606a5.8 5.8 0 001.898-2.28 6.172 6.172 0 000-3.058 4.061 4.061 0 01-.052-2.073c.257-.415 1.077-.726 1.795-.985a5.633 5.633 0 002.564-1.502 6.159 6.159 0 001.025-2.85 4.105 4.105 0 01.667-1.97c.615-.259 1.333-.414 2-.31 1.025.103 2.05-.104 2.974-.519a5.8 5.8 0 001.897-2.28c.41-.726.82-1.451 1.282-1.607a3.871 3.871 0 012 .415c.922.414 1.948.622 2.974.518a5.633 5.633 0 002.563-1.503c.616-.518 1.282-1.088 1.795-1.088.462 0 1.128.57 1.795 1.088a5.633 5.633 0 002.563 1.503c1.026.104 2.052-.104 2.975-.518a3.768 3.768 0 012-.415c.46.156.871.881 1.281 1.607a5.46 5.46 0 001.897 2.28c.923.415 1.949.622 2.974.518a4.392 4.392 0 012 .311c.41.57.615 1.244.667 1.97a6.158 6.158 0 001.025 2.85 5.633 5.633 0 002.564 1.502c.718.26 1.59.57 1.795.985.154.674.154 1.4-.052 2.073a6.172 6.172 0 000 3.057 5.461 5.461 0 001.898 2.28c.615.519 1.282 1.089 1.333 1.607-.103.674-.308 1.347-.718 1.866-.564.829-.923 1.865-1.026 2.902a6.578 6.578 0 001.026 2.902c.41.57.667 1.192.718 1.865-.103.467-.718 1.037-1.333 1.555a5.8 5.8 0 00-1.898 2.28 6.172 6.172 0 000 3.058c.206.673.206 1.399.052 2.072-.257.415-1.077.726-1.795.985a5.633 5.633 0 00-2.564 1.503 6.157 6.157 0 00-1.025 2.85 4.105 4.105 0 01-.667 1.97c-.615.258-1.333.414-2 .31-1.025-.103-2.05.104-2.974.518-.82.622-1.435 1.4-1.897 2.333zm11.999.052a1.021 1.021 0 00-.718.726l-1.744 6.426-7.076-7.152c.154-.207.308-.362.513-.518a4.935 4.935 0 011.949-.26c1.179.105 2.358-.154 3.333-.828.82-.881 1.282-1.97 1.384-3.161a4.65 4.65 0 01.564-1.866c.513-.415 1.077-.725 1.692-.88.205-.053.41-.156.616-.26l5.948 5.96-6.461 1.813z" fill="#F8B24F"/><path d="M63.673 51.77l-6.82-6.892c.154-.156.308-.363.462-.57.461-1.089.513-2.332.205-3.472a5.056 5.056 0 01-.103-1.97c.308-.57.77-1.036 1.282-1.399.974-.673 1.744-1.658 2.051-2.798.051-1.192-.256-2.332-.974-3.265a5.965 5.965 0 01-.77-1.866 4.251 4.251 0 01.77-1.865 5.319 5.319 0 00.974-3.265 5.342 5.342 0 00-2.05-2.798 4.73 4.73 0 01-1.283-1.4c-.102-.673-.102-1.347.103-1.969.307-1.14.256-2.383-.205-3.472a5.475 5.475 0 00-2.872-1.917 4.088 4.088 0 01-1.692-.881 4.65 4.65 0 01-.564-1.866c-.102-1.192-.564-2.332-1.384-3.16-.975-.675-2.154-.934-3.333-.83a4.935 4.935 0 01-1.949-.26c-.513-.414-.871-.932-1.18-1.554-.46-1.088-1.332-1.969-2.358-2.54-1.128-.258-2.358-.155-3.384.416-.615.259-1.23.414-1.897.414-.616-.207-1.128-.57-1.59-1.036C34.292.674 33.164.104 31.984 0c-1.179.155-2.307.674-3.128 1.555-.461.466-.974.829-1.59 1.036a4.62 4.62 0 01-1.896-.414 5.09 5.09 0 00-3.385-.415c-1.076.518-1.897 1.451-2.358 2.54a4.311 4.311 0 01-1.18 1.554 4.935 4.935 0 01-1.948.259c-1.18-.104-2.359.155-3.333.83-.82.88-1.282 1.968-1.385 3.16a4.65 4.65 0 01-.564 1.866c-.512.414-1.076.725-1.692.88a4.936 4.936 0 00-2.871 1.918c-.462 1.088-.513 2.332-.205 3.472.154.622.205 1.296.102 1.97-.307.57-.769 1.036-1.282 1.399-.974.673-1.743 1.658-2.05 2.798-.052 1.192.256 2.332.974 3.265.359.57.615 1.192.769 1.866a4.25 4.25 0 01-.77 1.865 5.318 5.318 0 00-.974 3.265 5.342 5.342 0 002.051 2.798c.513.363.975.83 1.282 1.4.103.673.103 1.347-.102 1.969-.308 1.14-.257 2.383.205 3.472.102.207.256.362.461.57L.295 51.77c-.256.26-.358.674-.256 1.036.103.363.36.674.718.726l7.538 2.073 2.05 7.618c.103.362.36.621.719.725.102 0 .153.052.256.052.256 0 .564-.104.718-.31l8.05-8.085c.41.777 1.077 1.4 1.897 1.71 1.128.26 2.36.156 3.385-.415.615-.259 1.23-.414 1.897-.414.615.207 1.128.57 1.59 1.036.82.881 1.897 1.451 3.127 1.555 1.18-.155 2.308-.674 3.128-1.555.462-.466.974-.829 1.59-1.036a4.62 4.62 0 011.897.414c1.077.519 2.256.674 3.384.415.82-.363 1.436-.985 1.897-1.71l8.05 8.084c.206.207.462.311.719.311.102 0 .205 0 .256-.052.359-.104.615-.363.718-.725l2.05-7.618 7.538-2.073c.36-.104.616-.363.718-.725.154-.415.052-.778-.256-1.037zm-51.789 9.12l-1.743-6.425a1.02 1.02 0 00-.718-.726l-6.358-1.762 5.896-6.011c.205.104.41.155.616.207.615.156 1.23.467 1.692.881a4.65 4.65 0 01.564 1.866c.102 1.192.564 2.332 1.384 3.161.974.674 2.154.933 3.333.83a4.935 4.935 0 011.949.258c.205.156.359.311.513.519l-7.128 7.203zm30.663-7.203c-.41.726-.82 1.452-1.282 1.607a3.87 3.87 0 01-2-.415c-.922-.414-1.948-.621-2.974-.518a5.634 5.634 0 00-2.563 1.503c-.616.518-1.282 1.088-1.795 1.088-.513 0-1.128-.57-1.795-1.088a5.634 5.634 0 00-2.563-1.503c-.206-.052-.36-.052-.564-.052-.82.052-1.641.26-2.41.57a3.768 3.768 0 01-2 .415c-.462-.155-.872-.881-1.282-1.606a5.46 5.46 0 00-1.897-2.28c-.923-.415-1.949-.623-2.974-.519a4.392 4.392 0 01-2-.31c-.41-.57-.615-1.245-.667-1.97a6.159 6.159 0 00-1.025-2.85 5.633 5.633 0 00-2.564-1.503c-.718-.26-1.59-.57-1.795-.985a4.061 4.061 0 01.052-2.073 6.172 6.172 0 000-3.057 5.461 5.461 0 00-1.898-2.28c-.615-.518-1.282-1.088-1.333-1.607.103-.673.308-1.347.718-1.865.564-.83.923-1.866 1.026-2.902a6.577 6.577 0 00-1.026-2.902c-.41-.57-.667-1.192-.718-1.866.103-.466.718-1.036 1.333-1.606a5.8 5.8 0 001.898-2.28 6.172 6.172 0 000-3.058 4.061 4.061 0 01-.052-2.073c.257-.415 1.077-.726 1.795-.985a5.633 5.633 0 002.564-1.502 6.159 6.159 0 001.025-2.85 4.105 4.105 0 01.667-1.97c.615-.259 1.333-.414 2-.31 1.025.103 2.05-.104 2.974-.519a5.8 5.8 0 001.897-2.28c.41-.726.82-1.451 1.282-1.607a3.871 3.871 0 012 .415c.922.414 1.948.622 2.974.518a5.633 5.633 0 002.563-1.503c.616-.518 1.282-1.088 1.795-1.088.462 0 1.128.57 1.795 1.088a5.633 5.633 0 002.563 1.503c1.026.104 2.052-.104 2.975-.518a3.768 3.768 0 012-.415c.46.156.871.881 1.281 1.607a5.46 5.46 0 001.897 2.28c.923.415 1.949.622 2.974.518a4.392 4.392 0 012 .311c.41.57.615 1.244.667 1.97a6.158 6.158 0 001.025 2.85 5.633 5.633 0 002.564 1.502c.718.26 1.59.57 1.795.985.154.674.154 1.4-.052 2.073a6.172 6.172 0 000 3.057 5.461 5.461 0 001.898 2.28c.615.519 1.282 1.089 1.333 1.607-.103.674-.308 1.347-.718 1.866-.564.829-.923 1.865-1.026 2.902a6.578 6.578 0 001.026 2.902c.41.57.667 1.192.718 1.865-.103.467-.718 1.037-1.333 1.555a5.8 5.8 0 00-1.898 2.28 6.172 6.172 0 000 3.058c.206.673.206 1.399.052 2.072-.257.415-1.077.726-1.795.985a5.633 5.633 0 00-2.564 1.503 6.157 6.157 0 00-1.025 2.85 4.105 4.105 0 01-.667 1.97c-.615.258-1.333.414-2 .31-1.025-.103-2.05.104-2.974.518-.82.622-1.435 1.4-1.897 2.333zm11.999.052a1.021 1.021 0 00-.718.726l-1.744 6.426-7.076-7.152c.154-.207.308-.362.513-.518a4.935 4.935 0 011.949-.26c1.179.105 2.358-.154 3.333-.828.82-.881 1.282-1.97 1.384-3.161a4.65 4.65 0 01.564-1.866c.513-.415 1.077-.725 1.692-.88.205-.053.41-.156.616-.26l5.948 5.96-6.461 1.813z" fill="#F8B24F"/><path d="M24.755 23.734L22.242 25.6v-3.058l2.615-1.969h2.666v17.982h-2.768v-14.82zm16.972 10.417c0 .725-.103 1.347-.359 1.917-.256.57-.564 1.036-1.026 1.4a4.73 4.73 0 01-1.486.88 4.946 4.946 0 01-1.744.311c-.615 0-1.18-.104-1.743-.31-.564-.208-1.026-.467-1.436-.882a3.816 3.816 0 01-.974-1.399c-.257-.57-.36-1.192-.36-1.917v-9.225c0-.725.103-1.347.36-1.917.256-.57.564-1.037 1.025-1.4.41-.362.923-.673 1.436-.88a4.945 4.945 0 011.743-.311c.616 0 1.18.103 1.744.31a4.36 4.36 0 011.487.882c.41.362.769.88.974 1.399.256.57.359 1.192.359 1.917v9.225zm-2.82-9.225c0-.57-.154-1.036-.462-1.347-.307-.311-.769-.466-1.282-.466-.512 0-.974.155-1.282.466-.307.31-.461.777-.461 1.347v9.225c0 .57.154 1.036.461 1.347.308.31.77.466 1.282.466.513 0 .975-.155 1.282-.466.308-.311.462-.777.462-1.347v-9.225z" fill="#F8B24F"/><path d="M24.755 23.734L22.242 25.6v-3.058l2.615-1.969h2.666v17.982h-2.768v-14.82zm16.972 10.417c0 .725-.103 1.347-.359 1.917-.256.57-.564 1.036-1.026 1.4a4.73 4.73 0 01-1.486.88 4.946 4.946 0 01-1.744.311c-.615 0-1.18-.104-1.743-.31-.564-.208-1.026-.467-1.436-.882a3.816 3.816 0 01-.974-1.399c-.257-.57-.36-1.192-.36-1.917v-9.225c0-.725.103-1.347.36-1.917.256-.57.564-1.037 1.025-1.4.41-.362.923-.673 1.436-.88a4.945 4.945 0 011.743-.311c.616 0 1.18.103 1.744.31a4.36 4.36 0 011.487.882c.41.362.769.88.974 1.399.256.57.359 1.192.359 1.917v9.225zm-2.82-9.225c0-.57-.154-1.036-.462-1.347-.307-.311-.769-.466-1.282-.466-.512 0-.974.155-1.282.466-.307.31-.461.777-.461 1.347v9.225c0 .57.154 1.036.461 1.347.308.31.77.466 1.282.466.513 0 .975-.155 1.282-.466.308-.311.462-.777.462-1.347v-9.225z" fill="#F8B24F"/></svg>