<svg width="231" height="130" fill="none" xmlns="http://www.w3.org/2000/svg"><path d="M146.934 64.515h-9.747v-5.093h9.747v5.093zM173.006 59.422v5.093h-9.503v-5.093h9.503zM183.484 36.866v6.79h-57.019v-6.79h11.94V0h7.31v36.866h19.007V0h7.066v36.866h11.696z" fill="#F8B24F"/><path fill-rule="evenodd" clip-rule="evenodd" d="M42.886 36.866h5.36V19.888h-5.36v16.978zm5.36 22.556h-5.36v16.735h5.36V59.422zm35.82 28.134h22.174V82.22H84.066v5.336zm0 26.194v-5.336h22.174v5.336H84.066zm58.481-3.396v-16.25h24.855v16.25h-24.855zm-5.36 5.336V88.769h35.819v26.921h-35.819zm55.8-9.944h-5.36V88.769h5.36v16.977z" fill="#F8B24F"/><path fill-rule="evenodd" clip-rule="evenodd" d="M0 0v130h231V65.485H61.405V0H0zm7.554 44.627h46.054V8.004H7.554v36.623zm0 7.761h46.054v69.851H7.554v-69.85zm53.851 69.851v-20.616h62.867v20.616H61.405zm0-28.135h62.867V73.49H61.405v20.615zm70.665-8.973v37.108h45.079V85.131H132.07zm53.12 37.108h38.013v-48.75H185.19v48.75zm-53.12-42.444v-6.306h5.378a4.938 4.938 0 00-1.236 3.274c0 1.141.386 2.193 1.036 3.032h-5.178zm12.897-6.306a4.943 4.943 0 011.236 3.274 4.939 4.939 0 01-1.036 3.032h5.97a4.939 4.939 0 01-1.036-3.032c0-1.254.467-2.4 1.236-3.274h-6.37zm-3.76 5.82a2.553 2.553 0 002.559-2.546 2.553 2.553 0 00-2.559-2.547 2.552 2.552 0 00-2.558 2.547 2.552 2.552 0 002.558 2.547zm16.448-2.546a2.552 2.552 0 01-2.558 2.547 2.552 2.552 0 01-2.559-2.547 2.552 2.552 0 012.559-2.547 2.552 2.552 0 012.558 2.547zm2.437 0c0-1.254-.467-2.4-1.236-3.274h6.37a4.942 4.942 0 00-1.235 3.274c0 1.141.386 2.193 1.035 3.032h-5.97a4.939 4.939 0 001.036-3.032zm11.452 0a2.552 2.552 0 01-2.558 2.547 2.553 2.553 0 01-2.559-2.547 2.553 2.553 0 012.559-2.547 2.552 2.552 0 012.558 2.547zm5.605-3.274v6.306h-4.204a4.933 4.933 0 001.036-3.032c0-1.254-.466-2.4-1.236-3.274h4.404z" fill="#F8B24F"/></svg>