<svg width="65" height="65" fill="none" xmlns="http://www.w3.org/2000/svg"><path fill-rule="evenodd" clip-rule="evenodd" d="M55.965 9.71H8.596L.91.484h62.747L55.966 9.71zm-.792-2.158H9.387l-4.1-4.911h53.98l-4.094 4.911zM7.253 30.618a1.265 1.265 0 01-.535-.163 1.457 1.457 0 01-.44-.387L3.08 26.435l-2.27-2.589a1.598 1.598 0 01-.37-.52 1.826 1.826 0 01-.155-.648c.013-.23.068-.454.16-.657.093-.204.221-.383.377-.526l4.834-5.501.267-.31.136-.158.27-.313.063-.06c.135-.127.28-.24.431-.339l.566-.36.276.274h49.365l.4-.31.622.59c.093.084.181.174.264.27l.488.564.245.285c.367.431.736.863 1.112 1.287a6432.65 6432.65 0 003.65 4.128c.087.08.164.173.23.276.19.301.274.675.234 1.046-.04.37-.2.709-.449.946-1.035 1.184-2.07 2.366-3.106 3.546-.801.913-1.606 1.824-2.413 2.732-.647.72-1.302.72-1.948 0l-3.2-3.642-2.174-2.492H13.61c-.992 1.141-1.982 2.275-2.97 3.402-.801.913-1.605 1.824-2.41 2.732-.251.322-.602.516-.976.54v-.011zm44.56-8.842h-39.14l-.242.496c-1.035 1.184-2.07 2.365-3.106 3.542l-2.069 2.34-2.87-3.268-1.944-2.218 4.522-5.145.292-.338c.09-.108.18-.216.274-.32h49.523l.652.762.376.436c.25.29.502.583.755.873 1.101 1.249 2.203 2.493 3.305 3.732l-2.734 3.128-.516.587c-.52.592-1.04 1.183-1.562 1.772l-2.867-3.269c-.758-.859-1.513-1.722-2.28-2.6a.95.95 0 01-.09-.11l-.28-.4z" fill="#F8B24F"/><path fill-rule="evenodd" clip-rule="evenodd" d="M15.624 64.484V28.888h32.76v15.623l-7.953 4.846v-9.064l-2.174-1.895-2.175 1.895v11.721l-8.076 4.915V40.307l-2.24-1.909-2.074 1.884v19.29l-8.068 4.912zm1.864-3.596V31.045l29.062.011V43.21l-4.224 2.574v-6.576l-4.038-3.527-4.038 3.527v11.506l-4.35 2.643V39.207l-4.165-3.513-3.898 3.538v19.013l-4.349 2.643z" fill="#F8B24F"/></svg>