<svg width="144" height="30" fill="none" xmlns="http://www.w3.org/2000/svg"><path d="M63.406 6.49v2.116c0 .178-.07.215-.23.133-.48-.244-.956-.5-1.446-.725-.345-.159-.709-.276-1.066-.407-.252-.093-.504-.193-.762-.266-.311-.087-.628-.154-.944-.223a12.649 12.649 0 00-2.286-.243 9.125 9.125 0 00-1.597.1c-.379.056-.755.13-1.126.223-.292.078-.58.173-.86.285a8.29 8.29 0 00-.875.375 6.978 6.978 0 00-1.34.868c-.33.272-.644.562-.942.868-.267.286-.49.613-.73.925-.31.41-.564.857-.76 1.332-.138.326-.27.657-.377.994-.129.401-.244.807-.336 1.218a6.348 6.348 0 00-.151 1.022c-.038.673-.07 1.349-.054 2.022a7.33 7.33 0 00.232 1.65c.076.293.125.595.215.883.104.333.233.658.363.981.087.227.189.447.304.66.185.342.388.674.61.993.254.361.532.704.833 1.027.458.49.988.909 1.57 1.24.184.104.356.233.547.321.343.16.693.307 1.047.441.289.118.586.213.889.287.582.133 1.175.217 1.771.251.825.037 1.651-.005 2.468-.126.333-.052.662-.123.987-.212.468-.122.934-.257 1.397-.398.176-.053.34-.14.512-.209.218-.088.443-.161.656-.261.296-.14.584-.298.875-.447.139-.072.278-.143.418-.211.142-.07.186-.04.188.122v.246c0 .985-.007 1.97.006 2.956a.375.375 0 01-.263.41c-.206.08-.404.18-.61.261-.327.127-.654.254-.988.364-.482.16-.968.309-1.455.452-.183.053-.374.079-.563.115-.354.067-.71.132-1.064.197a.44.44 0 01-.043.004c-.243.02-.485.049-.728.058-.589.023-1.178.056-1.767.047a10.19 10.19 0 01-1.457-.114 22.961 22.961 0 01-1.873-.397 9.822 9.822 0 01-1.047-.355c-.348-.13-.7-.254-1.031-.417a10.769 10.769 0 01-1.716-.99 20.4 20.4 0 01-1.496-1.198 12.007 12.007 0 01-1.05-1.125 8.609 8.609 0 01-1.086-1.574c-.145-.274-.326-.53-.452-.813-.192-.428-.355-.871-.522-1.311-.096-.253-.182-.511-.262-.77a4.822 4.822 0 01-.126-.514 38.2 38.2 0 01-.213-1.187 11.06 11.06 0 01-.154-2.38c.04-.708.107-1.415.198-2.117.068-.39.156-.776.264-1.157.043-.185.073-.374.13-.555.082-.276.18-.546.292-.81.233-.522.458-1.05.737-1.546.283-.492.595-.966.936-1.42.286-.385.595-.75.925-1.097.278-.293.577-.566.896-.813a17.62 17.62 0 011.503-1.077c.522-.322 1.066-.61 1.627-.858.487-.198.984-.371 1.489-.52.306-.1.615-.194.929-.267.258-.061.525-.09.788-.127.406-.056.811-.123 1.22-.153a13.1 13.1 0 012.471.033c.346.04.693.072 1.036.127.317.052.631.128.946.2.282.064.565.127.844.206.27.077.538.167.803.263.346.125.688.264 1.033.393.176.066.23.043.358-.105.12-.136.246-.266.375-.392.029-.029.083-.03.126-.043a.455.455 0 01.032.117c.002.715.003 1.43.002 2.144zM75.546 16.77v-4.393c.164.006.233.146.334.233.098.084.189.176.273.274a.211.211 0 00.282.047c.235-.105.468-.217.709-.306.292-.108.588-.209.89-.29.465-.124.933-.24 1.404-.34.376-.082.758-.136 1.137-.201a.31.31 0 01.043-.004c.742-.02 1.484-.06 2.225-.052.361.02.72.068 1.072.147.3.053.596.124.889.203.18.046.356.112.523.197.34.172.671.365.989.578.363.243.673.557.91.925.186.28.356.57.51.87.221.481.372.993.447 1.518.074.585.102 1.174.084 1.763 0 3.27-.002 6.54-.007 9.81a.732.732 0 00.243.575c.116.11.23.223.342.337.037.043.07.088.102.135-.079.009-.129.019-.178.019-1.277 0-2.554 0-3.83.003-.135 0-.172-.05-.17-.179a55.61 55.61 0 00-.002-1.391.556.556 0 00-.067-.175.92.92 0 00-.136.085 5.893 5.893 0 01-.884.687c-.175.103-.34.222-.518.322-.206.122-.42.232-.64.329-.31.132-.628.247-.952.343-.326.089-.656.16-.99.215a9.24 9.24 0 01-2.093.041 5.076 5.076 0 01-1-.213 4.564 4.564 0 01-1.36-.616 3.892 3.892 0 01-1.384-1.575 4.565 4.565 0 01-.42-1.68 2.637 2.637 0 01-.044-.415c.021-.65.144-1.294.364-1.907a4.869 4.869 0 01.899-1.425 4.996 4.996 0 011.068-.907c.315-.21.641-.404.978-.578.473-.217.965-.394 1.457-.567.294-.103.601-.167.903-.245a19.198 19.198 0 013.126-.483 22.54 22.54 0 011.475-.076c.14-.003.228-.076.219-.208a5.423 5.423 0 00-.254-1.678 2.068 2.068 0 00-.675-.904 3.318 3.318 0 00-1.852-.613 8.757 8.757 0 00-2.224.102c-.219.042-.433.108-.65.163-.179.044-.36.079-.536.134-.212.066-.421.14-.626.226-.49.204-.98.408-1.461.63-.229.104-.438.251-.658.375-.082.046-.17.08-.286.134zm9.224 5.483c0-.347.002-.695 0-1.043 0-.163-.075-.225-.23-.2-.029.005-.058.005-.087.007-.633.043-1.268.083-1.901.13a3.657 3.657 0 00-.466.073c-.33.068-.66.135-.985.218-.27.062-.535.143-.795.24-.327.13-.646.284-.96.443-.31.16-.586.376-.815.638a2.129 2.129 0 00-.556 1.22 1.816 1.816 0 00.606 1.724c.38.28.835.436 1.306.447.463.032.927-.01 1.377-.125a5.779 5.779 0 001.671-.705 5.623 5.623 0 001.628-1.59 1 1 0 00.212-.68c-.022-.264-.004-.53-.005-.797zM118.282 11.884c.025.07.043.141.054.215.002 1.372.002 2.743 0 4.115-.01.07-.026.137-.05.203-.147-.1-.265-.187-.39-.262-.426-.257-.847-.523-1.284-.76a6.09 6.09 0 00-.917-.402c-.28-.096-.579-.135-.867-.21a5.926 5.926 0 00-1.907-.15 7.144 7.144 0 00-1.142.173 2.477 2.477 0 00-.968.451 1.457 1.457 0 00-.49.604 1.458 1.458 0 00-.113.771 1.443 1.443 0 00.71 1.099c.195.123.388.25.593.355.185.09.376.168.571.232.376.129.753.252 1.133.367.38.116.766.209 1.145.328.386.121.769.258 1.15.395.275.099.55.197.815.318.258.117.508.249.749.395.256.144.498.31.725.495.414.35.756.778 1.007 1.26a4.952 4.952 0 01.337 3.363 4.375 4.375 0 01-1.151 2.12 5.302 5.302 0 01-1.542 1.067c-.276.12-.558.226-.846.315a10.053 10.053 0 01-4.053.47c-.557-.055-1.11-.14-1.658-.258a5.327 5.327 0 01-.489-.113 3.245 3.245 0 01-.349-.116c-.303-.12-.602-.247-.906-.366a8.694 8.694 0 01-1.441-.791.319.319 0 01-.103-.23c-.011-.333-.005-.667-.005-1 0-.676-.001-1.352.001-2.029a2.55 2.55 0 01.032-.261c.206.152.372.284.548.403.321.217.636.449.976.633.41.224.834.42 1.269.588.374.14.776.203 1.159.322a5.61 5.61 0 001.73.217 8.99 8.99 0 001.444-.124 2.734 2.734 0 001.216-.513 1.23 1.23 0 00.527-.949 1.525 1.525 0 00-.157-.875 1.793 1.793 0 00-.689-.694 9.77 9.77 0 00-1.016-.497c-.318-.13-.654-.213-.981-.32-.457-.148-.913-.297-1.369-.448-.408-.136-.819-.264-1.221-.416a7.453 7.453 0 01-1.704-.864 4.342 4.342 0 01-.866-.742 6.286 6.286 0 01-.56-.815 4.419 4.419 0 01-.465-2.799c.038-.443.152-.876.338-1.279.123-.255.276-.496.421-.74.251-.407.577-.761.96-1.044.46-.377.979-.675 1.536-.88.322-.109.637-.235.962-.333.211-.057.425-.1.642-.13.362-.057.724-.115 1.087-.153.239-.023.48-.029.719-.018.44.015.883.02 1.318.076.445.058.882.178 1.325.263a8.26 8.26 0 011.335.424c.088.036.173.077.256.123a.282.282 0 00.215.052.27.27 0 00.184-.124c.152-.162.315-.314.51-.507zM91.853 24.076c.249.183.46.35.684.5.274.185.552.364.839.529.23.131.468.25.712.354.497.23 1.017.405 1.551.523.373.074.743.165 1.119.213.287.028.575.035.863.02.34.001.678-.021 1.015-.067a2.85 2.85 0 001.577-.663 1.7 1.7 0 00.324-.495 1.1 1.1 0 00.114-.45 2.011 2.011 0 00-.086-.528 1.507 1.507 0 00-.661-.848 2.343 2.343 0 00-.403-.247 19.449 19.449 0 00-1.115-.444c-.377-.135-.761-.248-1.143-.37-.372-.12-.746-.233-1.118-.356a18.38 18.38 0 01-.958-.34 8.33 8.33 0 01-.874-.39 6.284 6.284 0 01-1.305-.889 3.892 3.892 0 01-.927-1.233 4.144 4.144 0 01-.335-1.095 5.679 5.679 0 01-.052-1.27 4.61 4.61 0 01.278-1.321c.149-.402.35-.782.599-1.13a3.79 3.79 0 01.52-.56c.216-.204.446-.392.688-.563.368-.26.77-.469 1.194-.618.374-.13.752-.25 1.132-.357.27-.076.546-.124.82-.184a.227.227 0 01.042-.007c.645-.02 1.291-.063 1.936-.052.397.007.792.106 1.19.145.472.065.939.171 1.393.317.287.096.567.208.841.336.101.05.204.094.31.132a.204.204 0 00.163-.047c.161-.149.311-.31.468-.463a1.49 1.49 0 01.162-.118v4.478c-.128-.075-.233-.132-.334-.196-.381-.238-.751-.495-1.143-.711a7.606 7.606 0 00-1.016-.459c-.286-.106-.589-.164-.885-.244a6.14 6.14 0 00-1.934-.164c-.439.02-.873.096-1.292.227a2.574 2.574 0 00-.924.49 1.386 1.386 0 00-.5 1.128 1.56 1.56 0 00.839 1.327c.213.132.437.244.669.337.324.13.657.238.988.35.285.096.57.19.859.275.262.077.53.135.792.212.228.067.453.145.677.226.41.132.813.285 1.208.457.433.213.85.456 1.249.728a3.742 3.742 0 011.298 1.538c.119.255.211.522.275.796.108.433.156.88.142 1.326a9.124 9.124 0 01-.149 1.08 3.816 3.816 0 01-.617 1.48 4.41 4.41 0 01-1.068 1.109 5.83 5.83 0 01-1.155.663 7.604 7.604 0 01-1.346.434c-.396.101-.8.167-1.208.197-.52.023-1.04.087-1.56.085a10.786 10.786 0 01-1.427-.111c-.366-.05-.723-.162-1.083-.246a6.542 6.542 0 01-1.418-.513c-.403-.199-.796-.418-1.192-.632-.065-.035-.117-.102-.185-.124-.145-.046-.146-.157-.146-.273V24.28c.006-.069.015-.137.029-.205zM143.96 11.615c.018.065.031.13.037.197.002 1.42.002 2.84 0 4.26-.006.065-.017.13-.033.193-.203-.118-.375-.233-.559-.321-.336-.162-.672-.327-1.021-.455-.408-.15-.826-.279-1.247-.389a4.88 4.88 0 00-.818-.125 8.002 8.002 0 00-1.159-.051 4.465 4.465 0 00-1.175.146c-.29.098-.604.132-.885.248a4.918 4.918 0 00-1.836 1.223 5.133 5.133 0 00-.82 1.159c-.124.277-.229.56-.317.851a5.974 5.974 0 00-.27 2.3c.023.354.081.704.174 1.046a7.7 7.7 0 00.412 1.161c.27.552.645 1.046 1.105 1.451.327.311.704.565 1.114.751.383.175.781.314 1.188.415.365.072.734.119 1.105.139.246.034.495.047.743.039.417-.03.832-.094 1.247-.151.235-.033.469-.077.701-.125.134-.03.267-.066.396-.112.263-.09.531-.169.783-.283.343-.155.674-.338 1.008-.512.133-.069.164-.06.164.084.002 1.13.002 2.26.001 3.39a.178.178 0 01-.148.204c-.347.108-.678.272-1.027.364-.506.134-1.022.232-1.537.33-.291.055-.589.076-.883.12-.729.093-1.466.107-2.198.04a14.416 14.416 0 01-1.474-.241 3.276 3.276 0 01-.501-.121c-.347-.12-.687-.262-1.033-.385a6.76 6.76 0 01-1.151-.568 7.081 7.081 0 01-1.186-.857 7.378 7.378 0 01-.75-.715c-.319-.39-.616-.798-.891-1.221a6.729 6.729 0 01-.548-.996 8.992 8.992 0 01-.414-1.183 9.87 9.87 0 01-.227-1.117 8.572 8.572 0 01.002-2.754c.074-.49.181-.975.323-1.45.15-.44.334-.867.55-1.278.18-.354.382-.696.603-1.024.172-.26.365-.505.577-.733.379-.438.806-.83 1.272-1.173.444-.3.895-.596 1.365-.852a6.675 6.675 0 011.047-.425c.348-.119.707-.209 1.064-.299a5.897 5.897 0 011.312-.186c.368-.008.737-.059 1.103-.04.514.027 1.025.098 1.537.157.302.034.604.075.904.127.228.039.452.098.678.152.266.065.531.137.797.202a.257.257 0 00.258-.086c.167-.17.341-.331.538-.52zM71.359 28.801h-4.88c.096-.117.164-.205.237-.287.1-.12.207-.234.319-.342a.36.36 0 00.097-.302c0-8.221 0-16.443.004-24.664a.545.545 0 00-.172-.4c-.12-.129-.242-.257-.359-.389a.58.58 0 01-.066-.13.608.608 0 01.143-.035c.605-.003 1.21-.002 1.814-.002.893 0 1.785 0 2.678.002.05.004.099.014.146.029a.652.652 0 01-.075.135 6.24 6.24 0 01-.476.49.313.313 0 00-.095.281v13.738c0 3.608-.002 7.216-.007 10.825a.739.739 0 00.25.574c.125.121.246.246.368.371a.967.967 0 01.074.106zM126.901 28.806c-.07.017-.141.029-.212.035-1.507.002-3.014.002-4.52 0a1.418 1.418 0 01-.22-.039c.2-.212.368-.398.546-.574a.409.409 0 00.126-.307c-.002-5.022-.002-10.045 0-15.068a.41.41 0 00-.132-.319c-.13-.124-.257-.253-.382-.384a1.438 1.438 0 01-.11-.16h4.843l.028.033c-.098.101-.194.204-.294.302-.071.07-.152.13-.221.201a.438.438 0 00-.142.329c.004 5.023.005 10.046.001 15.068a.376.376 0 00.11.28c.187.19.369.383.579.603zM124.436 3.041c.04.035.082.065.117.102.258.263.513.53.773.79.513.516 1.027 1.029 1.543 1.54.019.014.035.031.046.051a.14.14 0 01.017.067.153.153 0 01-.015.066.149.149 0 01-.045.052l-1.308 1.323c-.334.336-.669.672-1.006 1.007-.12.12-.15.12-.27 0-.446-.447-.89-.895-1.335-1.343l-.948-.954c-.138-.139-.137-.157.006-.3l2.019-2.028c.093-.094.182-.192.277-.284a.899.899 0 01.129-.089zM4.474 3.47L1.084 0h33.589l-3.39 3.47H4.473zM8.828 13.94V30l3.57-1.854v-9.405l1.72-1.33 1.85 1.33v7.55l3.569-1.854v-5.696l1.785-1.33 1.784 1.33v3.842l3.505-1.82V13.94H8.828zM35.67 10.198a791.22 791.22 0 01-2.126-2.05c-.358-.347-.709-.702-1.064-1.052-.05-.049-.107-.09-.163-.136l-.03.02H3.515l-.025-.02a1.342 1.342 0 00-.177.119c-.13.122-.254.253-.382.377l-2.782 2.7c-.197.19-.198.214-.008.4.435.423.87.847 1.307 1.27l1.839 1.786c.166.16.207.16.373 0a424.54 424.54 0 003.188-3.1.325.325 0 00.048-.062H28.87c.03.038.063.073.098.106l1.306 1.27 1.84 1.786c.166.16.206.16.372 0a427.645 427.645 0 003.189-3.1.193.193 0 00.082-.158.187.187 0 00-.086-.156z" fill="#F8B24F"/></svg>