<svg width="64" height="70" fill="none" xmlns="http://www.w3.org/2000/svg"><path d="M0 70V25.354L32 0l32 25.354V70h-2.428V26.512L32 3.087 2.428 26.512V70H0z" fill="#F8B24F"/><path d="M31.945 48.504h10.869v-16.15h-4.47v7.992h-12.8v-7.992h-4.468V48.45h10.869v.055zm13.351-10.087h8.331v10.087h3.752v20.945H6.51V48.504h3.531V38.417h8.607V29.93h26.648v8.488zm5.849 2.425H45.24v7.662h5.904v-7.661zm-32.773 0H12.47v7.662h5.903v-7.661zm9.6-8.488v5.567h8v-5.567h-8zm-1.71 18.575v7.992H13.407V50.93h-4.47v16.095h21.794V50.929h-4.469zm-10.428 0v5.567h8V50.93h-8zm34.649 0v7.992H37.628V50.93h-4.47v16.095h21.794V50.929h-4.47zm-10.428 0v5.567h8V50.93h-8z" fill="#F8B24F"/></svg>