<svg width="255" height="250" fill="none" xmlns="http://www.w3.org/2000/svg"><path clip-rule="evenodd" d="M217.786 190.378l9.639-9.705 21.192 21.335 5.383-5.42-21.192-21.335 9.641-9.705-58.188-33.755 33.525 58.585z" stroke="#12130F" stroke-width="2" stroke-linecap="round" stroke-linejoin="round"/><path d="M209.572 250H0V0h209.572v140.129l-17.878-10.372V16.78H17.878v166.58h173.816v-27.561l17.878 31.242V250zM2.979 247h203.613v-59.155l-11.919-20.828v19.344H14.898V13.78h179.775v114.243l11.919 6.914V3H2.979v244z" fill="#F8B24F"/><path d="M151.468 226.22H16.384v3h135.084v-3zM151.468 214.22H16.384v3h135.084v-3zM109.748 202.22H16.383v3h93.365v-3z" fill="#F8B24F"/><path fill-rule="evenodd" clip-rule="evenodd" d="M176.724 36.72h-46.743c-.671 0-1.214.547-1.214 1.222v54.272H83.821v-1.779a1.914 1.914 0 00-1.906-1.919h-3.264c-.67 0-1.215.547-1.215 1.223a1.22 1.22 0 001.215 1.225h2.737v1.25h-4.761V89.74c0-.676-.544-1.223-1.216-1.223-.672 0-1.216.547-1.216 1.223v2.475h-4.762v-1.25h2.733a1.22 1.22 0 001.217-1.225c0-.676-.543-1.223-1.217-1.223h-3.26c-1.05 0-1.905.86-1.905 1.92v1.778H55.434v-1.779a1.914 1.914 0 00-1.904-1.919h-3.264c-.67 0-1.215.547-1.215 1.223a1.22 1.22 0 001.215 1.225h2.736v1.25h-4.763V89.74c0-.676-.543-1.223-1.214-1.223a1.22 1.22 0 00-1.217 1.223v2.475h-4.763v-1.25h2.737a1.22 1.22 0 001.215-1.225c0-.676-.543-1.223-1.215-1.223h-3.263c-1.05 0-1.904.86-1.904 1.92v1.778h-5.768a1.22 1.22 0 00-1.216 1.224v70.456a1.22 1.22 0 001.216 1.223h143.877c.673 0 1.216-.548 1.216-1.223V37.942a1.22 1.22 0 00-1.216-1.223zM88.372 162.668h-54.31v-7.344H88.37l.001 7.344zm0-9.791h-54.31v-32.51h3.918v28.293a1.22 1.22 0 001.217 1.225h44.04a1.22 1.22 0 001.216-1.225v-28.293h3.918l.001 32.51zm-27.155-27.614c-6.183 0-11.284 4.75-11.895 10.815h-8.91v-15.711h41.61v15.711h-8.91c-.61-6.065-5.713-10.815-11.895-10.815zm9.44 10.815H51.778c.6-4.712 4.6-8.367 9.439-8.367 4.84 0 8.84 3.655 9.44 8.367zm11.365 2.449v8.909h-41.61v-8.909h41.61zm6.35-20.608h-54.31v-2.857H88.37l.001 2.857zm-47.96-5.304v-1.564h41.61v1.564h-41.61zm47.96 0h-3.918v-2.789a1.22 1.22 0 00-1.215-1.224H39.197a1.22 1.22 0 00-1.217 1.224v2.789h-3.918v-6.733H88.37l.001 6.733zm0-9.182h-54.31v-8.772H88.37l.001 8.772zm2.43 8.502h17.766v40.942H90.802v-40.942zm37.965 50.733H90.802v-7.344h37.964v7.344h.001zm0-9.791h-17.765v-40.942h17.765v40.942zm0-43.39H90.802v-9.384h37.964v9.384h.001zm0-11.833H90.802v-2.993h37.964v2.993h.001zm46.741 65.014h-44.311v-50.733h44.311v50.733zm0-53.182h-44.311v-70.32h44.311v70.32z" fill="#12130F"/><path fill-rule="evenodd" clip-rule="evenodd" d="M76.18 97.264c-.886 0-1.605.724-1.605 1.616 0 .891.72 1.614 1.605 1.614s1.603-.723 1.603-1.614a1.61 1.61 0 00-1.603-1.616zM69.322 97.655h-16.21a1.22 1.22 0 00-1.217 1.225 1.22 1.22 0 001.217 1.223h16.21a1.22 1.22 0 001.218-1.223c0-.676-.546-1.225-1.218-1.225zM81.549 97.264c-.885 0-1.605.724-1.605 1.616 0 .891.72 1.614 1.605 1.614.886 0 1.604-.723 1.604-1.614a1.61 1.61 0 00-1.605-1.616zM104.043 114.929c-.671 0-1.216.549-1.216 1.225v16.253c0 .675.545 1.224 1.216 1.224a1.22 1.22 0 001.217-1.224v-16.253a1.22 1.22 0 00-1.217-1.225zM124.442 54.979c.672 0 1.215-.548 1.215-1.224a1.22 1.22 0 00-1.215-1.225H95.126c-.67 0-1.216.549-1.216 1.225a1.22 1.22 0 001.216 1.224h6.89v13.976h-3.352c-.435 0-.836.233-1.053.612a1.231 1.231 0 000 1.225l4.569 7.957a1.214 1.214 0 002.106 0l4.569-7.957c.217-.38.217-.846.001-1.225a1.216 1.216 0 00-1.054-.612h-3.353V54.979h10.672v14.87l-4.407 7.673a1.24 1.24 0 000 1.226c.217.378.62.612 1.053.612h9.138a1.221 1.221 0 001.233-1.224c0-.29-.1-.557-.268-.767l-4.319-7.52v-14.87h6.891zm-18.747 16.424l-2.463 4.287-2.461-4.287h4.924zm13.103 5.508h-4.924l2.462-4.286 2.462 4.286zM115.526 133.631c.671 0 1.216-.549 1.216-1.225v-16.253c0-.675-.545-1.224-1.216-1.224-.672 0-1.217.549-1.217 1.224v16.253c0 .676.545 1.225 1.217 1.225zM118.093 103.435h-16.617a1.22 1.22 0 00-1.216 1.225 1.22 1.22 0 001.216 1.223h16.617a1.22 1.22 0 001.216-1.223 1.22 1.22 0 00-1.216-1.225zM40.886 97.264a1.61 1.61 0 00-1.605 1.616 1.61 1.61 0 001.605 1.614 1.61 1.61 0 001.605-1.614c0-.892-.72-1.616-1.605-1.616zM135.116 73.987a1.22 1.22 0 00-1.217 1.224v17.137a1.22 1.22 0 001.217 1.225 1.22 1.22 0 001.215-1.225V75.21a1.22 1.22 0 00-1.215-1.224zM135.116 118.464a1.22 1.22 0 00-1.217 1.225v13.6c0 .677.543 1.224 1.217 1.224.671 0 1.215-.547 1.215-1.224v-13.6c0-.676-.545-1.225-1.215-1.225zM90.505 59.582L78.645 45.85v-8.009c0-.676-.545-1.225-1.217-1.225H45.006a1.22 1.22 0 00-1.216 1.225v8.01L31.93 59.581a1.227 1.227 0 00.917 2.028h56.74c.477 0 .909-.28 1.106-.717a1.23 1.23 0 00-.188-1.31zM46.22 39.065h29.99v6.02h-29.99v-6.02zM35.515 59.161L45.56 47.532h31.315l10.045 11.63H35.515zM46.255 97.264a1.61 1.61 0 00-1.604 1.616 1.61 1.61 0 001.604 1.614 1.61 1.61 0 001.605-1.614c0-.892-.719-1.616-1.605-1.616z" fill="#12130F"/></svg>